<?xml version="1.0" standalone="no"?>
<!DOCTYPE svg PUBLIC "-//W3C//DTD SVG 20010904//EN"
 "http://www.w3.org/TR/2001/REC-SVG-20010904/DTD/svg10.dtd">
<svg version="1.0" xmlns="http://www.w3.org/2000/svg"
 width="489.000000pt" height="489.000000pt" viewBox="0 0 489.000000 489.000000"
 preserveAspectRatio="xMidYMid meet">
<metadata>
Created by potrace 1.14, written by Peter Selinger 2001-2017
</metadata>
<g transform="translate(0.000000,489.000000) scale(0.100000,-0.100000)"
fill="#000000" stroke="none">
<path d="M2279 4865 c-2 -2 -35 -6 -74 -9 -38 -3 -80 -8 -91 -10 -20 -4 -37
-7 -129 -22 -69 -11 -256 -62 -345 -95 -47 -17 -98 -36 -115 -42 -72 -25 -317
-157 -418 -224 -188 -126 -375 -293 -518 -463 -268 -319 -457 -722 -529 -1130
-7 -36 -14 -74 -16 -85 -19 -106 -27 -533 -11 -610 3 -11 7 -41 11 -66 41
-284 119 -530 247 -781 27 -53 61 -112 74 -132 14 -21 25 -39 25 -43 0 -10
113 -167 178 -248 81 -99 264 -282 357 -356 93 -73 230 -169 243 -169 6 0 12
-4 14 -9 5 -16 307 -165 403 -200 130 -47 133 -48 214 -71 85 -25 81 -24 226
-50 169 -30 196 -32 395 -35 214 -3 336 10 586 59 12 2 54 14 95 26 593 174
1059 518 1394 1030 59 90 175 314 206 396 33 90 99 286 103 309 2 11 13 65 24
120 42 207 50 293 47 520 -5 389 -90 732 -265 1073 -131 254 -252 418 -465
627 -122 120 -115 114 -230 201 -240 183 -511 317 -810 403 -99 28 -249 59
-325 67 -36 3 -69 9 -74 12 -10 6 -421 13 -427 7z"/>
</g>
</svg>
